<svg width="16" height="15" viewBox="0 0 16 15" fill="none" xmlns="http://www.w3.org/2000/svg">
<path d="M11.4668 0.351837H3.82747C1.71696 0.351837 0 2.0693 0 4.18044V11.1714C0 13.2825 1.71696 15 3.82747 15H11.4668C13.5774 15 15.2943 13.2825 15.2943 11.1714V4.18044C15.2943 2.0693 13.5774 0.351837 11.4668 0.351837ZM1.35021 4.18044C1.35021 2.81425 2.46169 1.70243 3.82747 1.70243H11.4668C12.8326 1.70243 13.9441 2.81425 13.9441 4.18044V11.1714C13.9441 12.5376 12.8326 13.6494 11.4668 13.6494H3.82747C2.46169 13.6494 1.35021 12.5376 1.35021 11.1714V4.18044Z" fill="white"/>
<path d="M7.64711 11.236C9.60972 11.236 11.2073 9.63884 11.2073 7.67479C11.2073 5.71074 9.61059 4.11356 7.64711 4.11356C5.68364 4.11356 4.08691 5.71074 4.08691 7.67479C4.08691 9.63884 5.68364 11.236 7.64711 11.236ZM7.64711 5.46502C8.86585 5.46502 9.8571 6.45657 9.8571 7.67566C9.8571 8.89476 8.86585 9.8863 7.64711 9.8863C6.42838 9.8863 5.43713 8.89476 5.43713 7.67566C5.43713 6.45657 6.42838 5.46502 7.64711 5.46502Z" fill="white"/>
<path d="M11.5369 4.68886C12.0654 4.68886 12.4961 4.25886 12.4961 3.72934C12.4961 3.19983 12.0662 2.76981 11.5369 2.76981C11.0075 2.76981 10.5776 3.19983 10.5776 3.72934C10.5776 4.25886 11.0075 4.68886 11.5369 4.68886Z" fill="white"/>
</svg>
