<svg width="13" height="15" viewBox="0 0 13 15" fill="none" xmlns="http://www.w3.org/2000/svg">
<path d="M12.012 4.18735V6.51912C11.6046 6.47932 11.0752 6.38674 10.4897 6.17216C9.72503 5.89183 9.15588 5.50855 8.78308 5.21178V9.92463L8.77357 9.90991C8.77962 10.0034 8.78308 10.0985 8.78308 10.1946C8.78308 12.535 6.87929 14.4402 4.5387 14.4402C2.1981 14.4402 0.294312 12.535 0.294312 10.1946C0.294312 7.85415 2.1981 5.94809 4.5387 5.94809C4.76791 5.94809 4.99281 5.96624 5.21251 6.00172V8.29975C5.00146 8.22447 4.77483 8.1838 4.5387 8.1838C3.43068 8.1838 2.52852 9.08536 2.52852 10.1946C2.52852 11.3038 3.43068 12.2053 4.5387 12.2053C5.64672 12.2053 6.54888 11.3029 6.54888 10.1946C6.54888 10.153 6.54801 10.1115 6.54542 10.07V0.911621H8.87477C8.88342 1.10889 8.89121 1.3079 8.89986 1.50517C8.91543 1.89366 9.05382 2.26657 9.29514 2.57199C9.57798 2.93106 9.99576 3.34808 10.5822 3.68119C11.1315 3.99181 11.647 4.12593 12.012 4.18909V4.18735Z" fill="white"/>
</svg>
