<svg width="16" height="22" viewBox="0 0 16 22" fill="none" xmlns="http://www.w3.org/2000/svg">
<path d="M14.2729 6.26071C14.7938 5.74118 14.7938 4.89746 14.2729 4.37793C13.7521 3.8584 12.9063 3.8584 12.3854 4.37793L7.99792 8.75862L3.60625 4.38209C3.08542 3.86255 2.23958 3.86255 1.71875 4.38209C1.19792 4.90162 1.19792 5.74534 1.71875 6.26487L6.11042 10.6414L1.72292 15.0221C1.20208 15.5416 1.20208 16.3853 1.72292 16.9049C2.24375 17.4244 3.08958 17.4244 3.61042 16.9049L7.99792 12.5242L12.3896 16.9007C12.9104 17.4202 13.7563 17.4202 14.2771 16.9007C14.7979 16.3812 14.7979 15.5375 14.2771 15.0179L9.88542 10.6414L14.2729 6.26071Z" fill="white"/>
</svg>
