<svg width="222" height="64" viewBox="0 0 222 64" fill="none" xmlns="http://www.w3.org/2000/svg">
<g opacity="0.95">
<path d="M23.6033 30.9395L36.8426 17.7002L38.5173 16.0255L44.7325 22.2406L24.5447 42.4283L29.1229 47.0065L49.3106 26.8187L55.1968 32.7049L35.0091 52.8927L39.5872 57.4709L59.775 37.2831L64.3532 32.7049L59.775 28.1268L53.8888 22.2406L49.3106 17.6624L43.0955 11.4473L38.5173 6.86914L33.9392 11.4473L32.2644 13.1221L19.0252 26.3613L13.8384 31.5443L18.4203 36.1225L23.6033 30.9395Z" fill="white"/>
<path d="M36.7974 4.50634L32.2948 0L5.23035 27.0645L0.897909 31.4007L0.727783 31.567L33.1605 63.9998L37.6631 59.4972L9.73668 31.567L36.7974 4.50634Z" fill="white"/>
<path d="M93.1858 12.3589V27.5224H90.1085V15.7916H89.7758L86.8081 26.8533H83.7308L80.7632 15.7916H80.4305V27.5224H77.3531V12.3589H82.5929L85.2695 23.3979L87.9461 12.3589H93.1858Z" fill="white"/>
<path d="M104.202 24.7814H98.8944L98.2933 27.5261H95.2159L98.6297 12.3625H104.471L107.884 27.5261H104.807L104.202 24.7814ZM102.085 14.903H101.015L99.4766 22.1049H103.624L102.085 14.903Z" fill="white"/>
<path d="M122.065 12.3589V27.5224H117.003L113.211 15.0355H112.988V27.5224H109.911V12.3589H115.105L118.761 24.8458H118.984V12.3589H122.065Z" fill="white"/>
<path d="M133.081 24.7814H127.774L127.173 27.5261H124.095L127.509 12.3625H133.35L136.764 27.5261H133.686L133.081 24.7814ZM130.961 14.903H129.891L128.352 22.1049H132.499L130.961 14.903Z" fill="white"/>
<path d="M140.427 26.9667C139.527 26.4185 138.884 25.5679 138.499 24.4262C138.113 23.2807 137.92 21.7647 137.92 19.8783C137.92 18.0183 138.121 16.5212 138.521 15.3833C138.922 14.2453 139.565 13.4136 140.449 12.8844C141.334 12.3551 142.521 12.0942 144.007 12.0942C145.39 12.0942 146.884 12.2492 148.49 12.563L149.292 12.718L149.201 15.1035C147.477 14.9107 146.018 14.8124 144.831 14.8124C143.655 14.8124 142.801 15.009 142.268 15.4022C141.731 15.7953 141.402 16.3322 141.277 17.0089C141.152 17.6856 141.088 18.6912 141.088 20.0295C141.088 21.3526 141.179 22.3696 141.357 23.0841C141.534 23.7986 141.859 24.3128 142.328 24.6341C142.797 24.9555 143.493 25.1142 144.415 25.1142C145.292 25.1142 145.908 25.084 146.267 25.0235V22.0785H144.884V19.4019H149.299V27.2729C147.129 27.6131 145.406 27.787 144.124 27.787C142.559 27.7908 141.326 27.5148 140.427 26.9667Z" fill="white"/>
<path d="M155.269 15.0354V18.5814H160.667V21.2126H155.269V24.8495H162.002V27.5261H152.192V12.3625H162.002V15.0391H155.269V15.0354Z" fill="white"/>
<path d="M180.379 12.3589V27.5224H177.302V15.7916H176.969L174.001 26.8533H170.924L167.956 15.7916H167.624V27.5224H164.546V12.3589H169.786L172.463 23.3979L175.139 12.3589H180.379Z" fill="white"/>
<path d="M186.756 15.0354V18.5814H192.155V21.2126H186.756V24.8495H193.49V27.5261H183.679V12.3625H193.49V15.0391H186.756V15.0354Z" fill="white"/>
<path d="M208.188 12.3589V27.5224H203.126L199.334 15.0355H199.111V27.5224H196.034V12.3589H201.228L204.884 24.8458H205.107V12.3589H208.188Z" fill="white"/>
<path d="M214.184 15.0808H210.124V12.3589H221.272V15.0808H217.257V27.5262H214.18V15.0808H214.184Z" fill="white"/>
<path d="M86.1317 48.9152V51.6372H77.5009V36.4736H80.5782V48.919H86.1317V48.9152Z" fill="white"/>
<path d="M89.2087 50.5901C88.256 49.713 87.7797 48.352 87.7797 46.511V36.4775H90.857V46.579C90.857 48.3483 91.7567 49.2329 93.5562 49.2329C95.3558 49.2329 96.2555 48.3483 96.2555 46.579V36.4775H99.3328V46.511C99.3328 48.3558 98.8565 49.713 97.9038 50.5901C96.9511 51.4672 95.5032 51.9057 93.5562 51.9057C91.6093 51.9057 90.1576 51.4672 89.2087 50.5901Z" fill="white"/>
<path d="M105.42 44.3673L101.049 36.4736H104.463L107.272 42.0498L110.149 36.4736H113.34L108.97 44.2123L113.34 51.6372H109.926L107.117 46.3974L104.24 51.6372H101.049L105.42 44.3673Z" fill="white"/>
<path d="M116.368 50.5901C115.415 49.713 114.939 48.352 114.939 46.511V36.4775H118.016V46.579C118.016 48.3483 118.916 49.2329 120.716 49.2329C122.515 49.2329 123.415 48.3483 123.415 46.579V36.4775H126.492V46.511C126.492 48.3558 126.016 49.713 125.063 50.5901C124.11 51.4672 122.662 51.9057 120.716 51.9057C118.769 51.9057 117.321 51.4672 116.368 50.5901Z" fill="white"/>
<path d="M129.66 36.4736H135.546C139.115 36.4736 140.899 38.1371 140.899 41.4677C140.899 43.4448 140.155 44.9003 138.669 45.8379L140.831 51.6372H137.463L135.701 46.5524H132.734V51.6372H129.656V36.4736H129.66ZM135.592 43.9212C136.291 43.9212 136.824 43.7019 137.198 43.2634C137.569 42.8248 137.754 42.2351 137.754 41.4903C137.754 40.7456 137.561 40.1634 137.176 39.74C136.79 39.3166 136.246 39.1049 135.546 39.1049H132.737V43.9212H135.592Z" fill="white"/>
<path d="M146.03 45.5052L141.346 36.4736H144.76L147.546 42.5186L150.332 36.4736H153.746L149.107 45.5052V51.6372H146.03V45.5052Z" fill="white"/>
</g>
</svg>
