<svg width="20" height="23" viewBox="0 0 20 23" fill="none" xmlns="http://www.w3.org/2000/svg">
<path d="M0 4.28404C0 3.49386 0.638393 2.85547 1.42857 2.85547H18.5714C19.3616 2.85547 20 3.49386 20 4.28404C20 5.07422 19.3616 5.71261 18.5714 5.71261H1.42857C0.638393 5.71261 0 5.07422 0 4.28404ZM0 11.4269C0 10.6367 0.638393 9.99833 1.42857 9.99833H18.5714C19.3616 9.99833 20 10.6367 20 11.4269C20 12.2171 19.3616 12.8555 18.5714 12.8555H1.42857C0.638393 12.8555 0 12.2171 0 11.4269ZM20 18.5698C20 19.3599 19.3616 19.9983 18.5714 19.9983H1.42857C0.638393 19.9983 0 19.3599 0 18.5698C0 17.7796 0.638393 17.1412 1.42857 17.1412H18.5714C19.3616 17.1412 20 17.7796 20 18.5698Z" fill="white"/>
</svg>
