<svg width="393" height="92" viewBox="0 0 393 92" fill="none" xmlns="http://www.w3.org/2000/svg">
<g opacity="0.6">
<g opacity="0.5">
<path d="M138.03 44.6412L155.657 26.8798L157.887 24.633L166.162 32.971L139.284 60.0543L145.379 66.1962L172.258 39.1129L180.095 47.0097L153.216 74.093L159.312 80.2349L186.19 53.1516L192.286 47.0097L186.19 40.8678L178.353 32.971L172.258 26.8291L163.983 18.4911L157.887 12.3492L151.792 18.4911L149.562 20.7379L131.935 38.4993L125.029 45.4527L131.129 51.5946L138.03 44.6412Z" stroke="#EAECF0" stroke-width="0.5"/>
<path d="M152.72 7.36393L146.36 1.03491L108.131 39.0461L102.012 45.1362L101.771 45.3698L147.583 90.9206L153.943 84.597L114.497 45.3698L152.72 7.36393Z" stroke="#EAECF0" stroke-width="0.5"/>
</g>
<g opacity="0.5">
<path d="M337.916 44.6412L355.543 26.8798L357.773 24.633L366.048 32.971L339.169 60.0543L345.265 66.1962L372.144 39.1129L379.981 47.0097L353.102 74.093L359.197 80.2349L386.076 53.1516L392.172 47.0097L386.076 40.8678L378.239 32.971L372.144 26.8291L363.869 18.4911L357.773 12.3492L351.677 18.4911L349.448 20.7379L331.82 38.4993L324.915 45.4527L331.015 51.5946L337.916 44.6412Z" stroke="#EAECF0" stroke-width="0.5"/>
<path d="M352.606 7.36393L346.246 1.03491L308.017 39.0461L301.898 45.1362L301.657 45.3698L347.469 90.9206L353.829 84.597L314.382 45.3698L352.606 7.36393Z" stroke="#EAECF0" stroke-width="0.5"/>
</g>
<g opacity="0.5">
<path d="M237.973 44.6412L255.6 26.8798L257.83 24.633L266.105 32.971L239.226 60.0543L245.322 66.1962L272.201 39.1129L280.038 47.0097L253.159 74.093L259.255 80.2349L286.133 53.1516L292.229 47.0097L286.133 40.8678L278.296 32.971L272.201 26.8291L263.926 18.4911L257.83 12.3492L251.735 18.4911L249.505 20.7379L231.878 38.4993L224.972 45.4527L231.072 51.5946L237.973 44.6412Z" stroke="#EAECF0" stroke-width="0.5"/>
<path d="M252.663 7.36393L246.303 1.03491L208.074 39.0461L201.955 45.1362L201.714 45.3698L247.526 90.9206L253.886 84.597L214.439 45.3698L252.663 7.36393Z" stroke="#EAECF0" stroke-width="0.5"/>
</g>
<g opacity="0.5">
<path d="M38.0874 44.6412L55.7146 26.8798L57.9444 24.633L66.2194 32.971L39.3407 60.0543L45.4362 66.1962L72.3149 39.1129L80.152 47.0097L53.2733 74.093L59.3689 80.2349L86.2475 53.1516L92.3431 47.0097L86.2475 40.8678L78.4104 32.971L72.3149 26.8291L64.0399 18.4911L57.9444 12.3492L51.8489 18.4911L49.619 20.7379L31.9918 38.4993L25.0859 45.4527L31.1865 51.5946L38.0874 44.6412Z" stroke="#EAECF0" stroke-width="0.5"/>
<path d="M52.7772 7.36393L46.4173 1.03491L8.18853 39.0461L2.06892 45.1362L1.82861 45.3698L47.6402 90.9206L54 84.597L14.5537 45.3698L52.7772 7.36393Z" stroke="#EAECF0" stroke-width="0.5"/>
</g>
</g>
</svg>
