<svg width="19" height="18" viewBox="0 0 19 18" fill="none" xmlns="http://www.w3.org/2000/svg">
<path fill-rule="evenodd" clip-rule="evenodd" d="M2.96836 8.64345L9.01856 2.77584C9.12713 2.67221 9.29985 2.67221 9.40595 2.77831H9.40842L15.3945 8.64592H15.3969L15.5919 8.82357C15.6535 8.87786 15.6856 8.95435 15.6856 9.03331V17.7187C15.6856 17.8742 15.5622 18 15.4068 18H11.1184V12.7197C11.1184 12.5642 10.995 12.4384 10.8395 12.4384H7.58497C7.42952 12.4384 7.30615 12.5642 7.30615 12.7197V18H3.01771C2.86473 18 2.73889 17.8742 2.73889 17.7187V8.98643C2.73889 8.8976 2.77837 8.82111 2.84006 8.76929L2.96836 8.64345Z" fill="#191716"/>
<path fill-rule="evenodd" clip-rule="evenodd" d="M9.21354 1.33983L0.942634 9.26035C0.718096 9.47502 0.36525 9.46515 0.153049 9.24061C-0.0591514 9.01607 -0.0492823 8.65829 0.172789 8.44609L8.82862 0.15545C9.04329 -0.0518165 9.38133 -0.0518165 9.59599 0.15545L18.2518 8.44609C18.4764 8.65829 18.4838 9.01607 18.2716 9.24061C18.0594 9.46515 17.7065 9.47502 17.4844 9.26035L9.21354 1.33983Z" fill="#191716"/>
</svg>
