<svg width="19" height="18" viewBox="0 0 19 18" fill="none" xmlns="http://www.w3.org/2000/svg">
<path fill-rule="evenodd" clip-rule="evenodd" d="M2.96849 8.64345L9.01868 2.77584C9.12725 2.67221 9.29997 2.67221 9.40607 2.77831H9.40854L15.3946 8.64592H15.3971L15.592 8.82357C15.6537 8.87786 15.6857 8.95435 15.6857 9.03331V17.7187C15.6857 17.8742 15.5624 18 15.4069 18H11.1185V12.7197C11.1185 12.5642 10.9951 12.4384 10.8397 12.4384H7.58509C7.42964 12.4384 7.30627 12.5642 7.30627 12.7197V18H3.01784C2.86485 18 2.73901 17.8742 2.73901 17.7187V8.98643C2.73901 8.8976 2.77849 8.82111 2.84018 8.76929L2.96849 8.64345Z" fill="white"/>
<path fill-rule="evenodd" clip-rule="evenodd" d="M9.21354 1.33983L0.942634 9.26035C0.718096 9.47502 0.36525 9.46515 0.153049 9.24061C-0.0591514 9.01607 -0.0492823 8.65829 0.172789 8.44609L8.82862 0.15545C9.04329 -0.0518165 9.38133 -0.0518165 9.59599 0.15545L18.2518 8.44609C18.4764 8.65829 18.4838 9.01607 18.2716 9.24061C18.0594 9.46515 17.7065 9.47502 17.4844 9.26035L9.21354 1.33983Z" fill="white"/>
</svg>
